<?xml version="1.0" encoding="utf-8"?>
<!-- Generator: Adobe Illustrator 27.5.0, SVG Export Plug-In . SVG Version: 6.00 Build 0)  -->
<svg version="1.1" xmlns="http://www.w3.org/2000/svg" xmlns:xlink="http://www.w3.org/1999/xlink" x="0px" y="0px"
	 viewBox="0 0 500 500" style="enable-background:new 0 0 500 500;" xml:space="preserve">
<g id="Background_Complete">
	<g>
		<rect y="382.398" style="fill:#EBEBEB;" width="500" height="0.25"/>
		<rect x="90.459" y="391.922" style="fill:#EBEBEB;" width="24.874" height="0.25"/>
		<rect x="152.333" y="389.208" style="fill:#EBEBEB;" width="27.5" height="0.25"/>
		<rect x="47.667" y="401.208" style="fill:#EBEBEB;" width="58.108" height="0.25"/>
		<rect x="428.305" y="399.528" style="fill:#EBEBEB;" width="21.597" height="0.25"/>
		<rect x="214.791" y="391.138" style="fill:#EBEBEB;" width="27.93" height="0.25"/>
		<rect x="300.667" y="395.306" style="fill:#EBEBEB;" width="70.222" height="0.25"/>
		<path style="fill:#EBEBEB;" d="M237.014,337.8H43.915c-3.147,0-5.708-2.561-5.708-5.708V60.66c0-3.147,2.561-5.708,5.708-5.708
			h193.099c3.146,0,5.707,2.561,5.707,5.708v271.432C242.721,335.239,240.16,337.8,237.014,337.8z M43.915,55.203
			c-3.01,0-5.458,2.448-5.458,5.458v271.432c0,3.01,2.448,5.458,5.458,5.458h193.099c3.009,0,5.457-2.448,5.457-5.458V60.66
			c0-3.009-2.448-5.458-5.457-5.458H43.915z"/>
		<path style="fill:#EBEBEB;" d="M453.31,337.8H260.212c-3.147,0-5.707-2.561-5.707-5.708V60.66c0-3.147,2.561-5.708,5.707-5.708
			H453.31c3.148,0,5.708,2.561,5.708,5.708v271.432C459.019,335.239,456.458,337.8,453.31,337.8z M260.212,55.203
			c-3.009,0-5.457,2.448-5.457,5.458v271.432c0,3.01,2.448,5.458,5.457,5.458H453.31c3.01,0,5.458-2.448,5.458-5.458V60.66
			c0-3.009-2.448-5.458-5.458-5.458H260.212z"/>
	</g>
	<g>
		<g>
			<path style="fill:#EBEBEB;" d="M321.016,259.91H31.848c-4.73,0-8.599-3.87-8.599-8.6V73.22c0-4.73,3.87-8.599,8.599-8.599
				h289.168c4.73,0,8.599,3.87,8.599,8.599V251.31C329.615,256.04,325.745,259.91,321.016,259.91z"/>
			<rect x="23.249" y="74.504" style="fill:#FAFAFA;" width="306.366" height="157.425"/>
		</g>
		<g>
			<g>
				<path style="fill:#E6E6E6;" d="M231.275,134.144c0-4.043,3.308-7.35,7.35-7.35h228.969c4.043,0,7.35,3.308,7.35,7.35v23.661
					H231.275V134.144z"/>
				<circle style="fill:#FFFFFF;" cx="290.705" cy="142.299" r="5.558"/>
				<circle style="fill:#FFFFFF;" cx="271.012" cy="142.299" r="5.558"/>
				<circle style="fill:#FFFFFF;" cx="251.318" cy="142.299" r="5.558"/>
				<path style="fill:#F5F5F5;" d="M467.594,285.2H238.625c-4.043,0-7.35-3.307-7.35-7.35V157.804h243.669V277.85
					C474.944,281.893,471.636,285.2,467.594,285.2z"/>
			</g>
			<g>
				<path style="fill:#F0F0F0;" d="M198.545,175.074c0-4.043,3.308-7.35,7.35-7.35h228.969c4.043,0,7.35,3.308,7.35,7.35v23.661
					H198.545V175.074z"/>
				<circle style="fill:#E6E6E6;" cx="257.976" cy="183.229" r="5.558"/>
				<circle style="fill:#E6E6E6;" cx="238.282" cy="183.229" r="5.558"/>
				<circle style="fill:#E6E6E6;" cx="218.589" cy="183.229" r="5.558"/>
				<path style="fill:#FAFAFA;" d="M434.864,326.131H205.895c-4.043,0-7.35-3.308-7.35-7.35V198.735h243.669V318.78
					C442.215,322.823,438.907,326.131,434.864,326.131z"/>
			</g>
			<g>
				<path style="fill:#FAFAFA;" d="M165.816,216.004c0-4.043,3.308-7.35,7.35-7.35h228.969c4.043,0,7.35,3.308,7.35,7.35v23.661
					H165.816V216.004z"/>
				<circle style="fill:#F0F0F0;" cx="225.246" cy="224.16" r="5.558"/>
				<circle style="fill:#F0F0F0;" cx="205.553" cy="224.16" r="5.558"/>
				<circle style="fill:#F0F0F0;" cx="185.859" cy="224.16" r="5.558"/>
				<path style="fill:#E6E6E6;" d="M402.135,367.061H173.166c-4.043,0-7.35-3.308-7.35-7.35V239.665h243.669v120.046
					C409.485,363.753,406.177,367.061,402.135,367.061z"/>
			</g>
		</g>
	</g>
</g>
<g id="Background_Simple" style="display:none;">
	<g style="display:inline;">
		<path style="fill:#00b4d8;" d="M100.375,163.074c67.189-4.29,91.357-79.701,138.771-95.463
			C343.718,43.39,510.99,174.94,414.153,276.911c-37.673,37.01-130.93,8.987-164.587,12.894
			c-50.553-0.359-104.522,12.133-152.951-0.287C18.486,275.742,22.942,161.267,100.375,163.074z"/>
		<path style="opacity:0.9;fill:#FFFFFF;" d="M100.375,163.074c67.189-4.29,91.357-79.701,138.771-95.463
			C343.718,43.39,510.99,174.94,414.153,276.911c-37.673,37.01-130.93,8.987-164.587,12.894
			c-50.553-0.359-104.522,12.133-152.951-0.287C18.486,275.742,22.942,161.267,100.375,163.074z"/>
	</g>
</g>
<g id="Shadow_1_">
	<ellipse id="_x3C_Path_x3E__117_" style="fill:#F5F5F5;" cx="250" cy="416.238" rx="193.889" ry="11.323"/>
</g>
<g id="About_Us_Page">
	<g>
		<rect x="182.333" y="82.5" style="fill:#00b4d8;" width="8.834" height="1"/>
		<rect x="150.167" y="82.5" style="fill:#00b4d8;" width="21.666" height="1"/>
		<path style="fill:#00b4d8;" d="M421.667,373.722H78.333V98c0-6.6,5.4-12,12-12h319.333c6.6,0,12,5.4,12,12V373.722z"/>
		<rect x="78.333" y="104" style="opacity:0.8;fill:#FFFFFF;" width="343.333" height="265.055"/>
		<rect x="78.333" y="104" style="opacity:0.4;fill:#00b4d8;" width="343.333" height="58.265"/>
		<rect x="400.247" y="109.574" style="opacity:0.4;fill:#00b4d8;" width="14.333" height="14.333"/>
		<rect x="378.987" y="109.574" style="opacity:0.4;fill:#00b4d8;" width="14.333" height="14.333"/>
		<rect x="357.727" y="109.574" style="opacity:0.4;fill:#00b4d8;" width="14.333" height="14.333"/>
		<rect x="128.964" y="359.5" style="opacity:0.4;fill:#00b4d8;" width="14.333" height="1.444"/>
		<rect x="107.704" y="359.5" style="opacity:0.4;fill:#00b4d8;" width="14.333" height="1.444"/>
		<rect x="86.444" y="359.5" style="opacity:0.4;fill:#00b4d8;" width="14.333" height="1.444"/>
		<g>
			<path style="fill:#FFFFFF;" d="M215.692,137.201h-4.374l-0.608,2.058h-3.933l4.685-12.466h4.202l4.684,12.466h-4.033
				L215.692,137.201z M214.893,134.506l-1.376-4.481l-1.362,4.481H214.893z"/>
			<path style="fill:#FFFFFF;" d="M221.361,126.793h3.495v4.32c0.346-0.363,0.738-0.635,1.178-0.816
				c0.439-0.181,0.925-0.272,1.458-0.272c1.1,0,2.01,0.395,2.729,1.186c0.72,0.791,1.08,1.926,1.08,3.406
				c0,0.986-0.164,1.855-0.493,2.606c-0.329,0.751-0.784,1.312-1.365,1.684c-0.581,0.371-1.226,0.557-1.934,0.557
				c-0.607,0-1.162-0.13-1.667-0.391c-0.38-0.204-0.794-0.587-1.242-1.148v1.335h-3.24V126.793z M224.83,134.718
				c0,0.777,0.146,1.339,0.438,1.688c0.292,0.349,0.662,0.523,1.11,0.523c0.414,0,0.761-0.172,1.042-0.515
				c0.281-0.343,0.421-0.92,0.421-1.73c0-0.714-0.137-1.239-0.412-1.573c-0.275-0.335-0.608-0.502-0.999-0.502
				c-0.47,0-0.855,0.174-1.152,0.523C224.979,133.481,224.83,134.01,224.83,134.718z"/>
			<path style="fill:#FFFFFF;" d="M232.534,134.769c0-1.377,0.465-2.513,1.395-3.405c0.93-0.893,2.185-1.339,3.767-1.339
				c1.808,0,3.175,0.524,4.099,1.573c0.743,0.845,1.114,1.885,1.114,3.121c0,1.389-0.461,2.527-1.382,3.414
				c-0.921,0.887-2.195,1.331-3.822,1.331c-1.451,0-2.625-0.368-3.52-1.105C233.084,137.445,232.534,136.249,232.534,134.769z
				 M236.004,134.761c0,0.805,0.163,1.4,0.489,1.786c0.326,0.385,0.736,0.578,1.229,0.578c0.499,0,0.908-0.19,1.229-0.57
				s0.48-0.989,0.48-1.828c0-0.782-0.162-1.365-0.485-1.747c-0.323-0.383-0.723-0.574-1.199-0.574c-0.505,0-0.921,0.194-1.25,0.583
				C236.168,133.376,236.004,133.967,236.004,134.761z"/>
			<path style="fill:#FFFFFF;" d="M254.09,139.259h-3.231v-1.463c-0.482,0.601-0.968,1.029-1.458,1.284
				c-0.49,0.255-1.093,0.383-1.807,0.383c-0.952,0-1.699-0.285-2.241-0.854c-0.541-0.57-0.812-1.447-0.812-2.632v-5.748h3.478v4.966
				c0,0.567,0.105,0.969,0.315,1.208c0.21,0.238,0.505,0.357,0.884,0.357c0.414,0,0.753-0.159,1.016-0.476
				c0.264-0.317,0.395-0.887,0.395-1.709v-4.345h3.461V139.259z"/>
			<path style="fill:#FFFFFF;" d="M260.366,126.793v3.435h1.905v2.534h-1.905v3.199c0,0.385,0.037,0.639,0.111,0.764
				c0.113,0.192,0.312,0.288,0.595,0.288c0.255,0,0.612-0.073,1.071-0.221l0.255,2.389c-0.856,0.187-1.655,0.281-2.398,0.281
				c-0.862,0-1.497-0.11-1.905-0.331c-0.408-0.221-0.71-0.556-0.906-1.006c-0.196-0.45-0.293-1.179-0.293-2.187v-3.176h-1.276
				v-2.534h1.276v-1.658L260.366,126.793z"/>
			<path style="fill:#FFFFFF;" d="M278.069,126.793h3.843v7.427c0,0.737-0.115,1.432-0.344,2.086c-0.23,0.654-0.59,1.227-1.08,1.717
				c-0.49,0.49-1.005,0.834-1.543,1.032c-0.748,0.277-1.647,0.416-2.695,0.416c-0.607,0-1.268-0.042-1.986-0.128
				c-0.717-0.085-1.317-0.253-1.798-0.506c-0.482-0.252-0.923-0.61-1.322-1.075c-0.4-0.464-0.673-0.943-0.82-1.436
				c-0.238-0.793-0.357-1.496-0.357-2.107v-7.427h3.844v7.604c0,0.68,0.189,1.211,0.565,1.593c0.377,0.382,0.9,0.573,1.569,0.573
				c0.663,0,1.183-0.188,1.56-0.565c0.377-0.377,0.565-0.911,0.565-1.602V126.793z"/>
			<path style="fill:#FFFFFF;" d="M283.622,136.751l3.435-0.323c0.142,0.408,0.34,0.7,0.595,0.876
				c0.255,0.176,0.595,0.264,1.02,0.264c0.465,0,0.825-0.099,1.08-0.297c0.198-0.147,0.298-0.331,0.298-0.552
				c0-0.249-0.13-0.441-0.391-0.577c-0.187-0.096-0.683-0.215-1.488-0.356c-1.202-0.21-2.037-0.404-2.504-0.582
				c-0.468-0.178-0.862-0.48-1.182-0.904c-0.32-0.424-0.48-0.909-0.48-1.453c0-0.594,0.173-1.107,0.519-1.538
				c0.346-0.43,0.822-0.752,1.428-0.964c0.607-0.212,1.42-0.318,2.44-0.318c1.077,0,1.872,0.082,2.385,0.247
				c0.513,0.164,0.941,0.42,1.284,0.765c0.343,0.346,0.628,0.814,0.855,1.403l-3.282,0.323c-0.085-0.289-0.227-0.502-0.425-0.638
				c-0.272-0.181-0.601-0.272-0.986-0.272c-0.391,0-0.676,0.069-0.855,0.208c-0.179,0.139-0.268,0.307-0.268,0.505
				c0,0.221,0.113,0.388,0.34,0.501c0.227,0.113,0.72,0.215,1.48,0.306c1.151,0.13,2.007,0.311,2.568,0.544
				c0.561,0.232,0.991,0.563,1.288,0.994c0.298,0.431,0.446,0.904,0.446,1.419c0,0.521-0.157,1.028-0.472,1.521
				c-0.315,0.493-0.811,0.885-1.488,1.177c-0.677,0.291-1.6,0.437-2.768,0.437c-1.65,0-2.824-0.235-3.525-0.706
				C284.27,138.287,283.82,137.618,283.622,136.751z"/>
		</g>
		<g>
			<circle style="fill:#00b4d8;" cx="149.178" cy="225.119" r="50"/>
			<g>
				<defs>
					
						<ellipse id="SVGID_1_" transform="matrix(0.7071 -0.7071 0.7071 0.7071 -115.4902 171.4204)" cx="149.178" cy="225.119" rx="47.368" ry="47.368"/>
				</defs>
				<use xlink:href="#SVGID_1_"  style="overflow:visible;fill:#FFFFFF;"/>
				<clipPath id="SVGID_00000134948609324559863260000009164679214938316460_">
					<use xlink:href="#SVGID_1_"  style="overflow:visible;"/>
				</clipPath>
				<g style="clip-path:url(#SVGID_00000134948609324559863260000009164679214938316460_);">
					<path style="fill:#B55B52;" d="M151.602,234.978l3.961-8.315c0,0,20.877,6.594,23.982,8.128
						c-0.072-5.225,2.58-15.034,2.872-20.358c0.79-0.751,2.705-2.646,3.691-2.578c3.008,6.992,2.355,31.05-3.552,31.439
						C173.185,243.911,151.602,234.978,151.602,234.978z"/>
					<path style="fill:#00b4d8;" d="M148.985,233.702c2.407,5.653,22.196,10.676,22.196,10.676l4.047-12.161
						c0,0-7.542-5.715-15.368-7.57C151.825,222.743,146.343,227.499,148.985,233.702z"/>
					<path style="opacity:0.2;" d="M149.348,234.363c2.347,3.546,11.093,6.771,16.777,8.556
						C162.341,235.555,157.232,231.496,149.348,234.363z"/>
					<path style="fill:#B55B52;" d="M182.445,215.506l-3.182-4.084l5.897-3.297c0,0,1.633,2.04,1.706,5.932L182.445,215.506z"/>
					<polygon style="fill:#B55B52;" points="178.386,205.763 184.137,204.829 185.16,208.126 179.263,211.422 					"/>
					<path style="fill:#00b4d8;" d="M160.306,225.057c0,0,8.061,19.407,1.742,55.55c-10.357,0-26.461,0-31.501,0
						c-0.366-5.277,2.318-31.018-3.381-55.881c0,0,5.863-1.182,11.472-1.453c4.387-0.212,10.743-0.352,14.613,0.001
						C158.354,223.738,160.306,225.057,160.306,225.057z"/>
					<path style="opacity:0.2;" d="M134.785,230.865c0.673,4.091-0.378,13.882-3.998,25.195c-0.226-8.707-0.997-18.802-3.082-28.86
						l-0.001-0.049C129.963,226.919,134.143,227.029,134.785,230.865z"/>
					<path style="fill:#B55B52;" d="M140.214,209.606c1.037,4.702,1.638,10.529-1.575,13.666c0,0,2.006,4.769,10.743,4.769
						c7.983,0,3.87-4.769,3.87-4.769c-5.274-1.252-5.159-7.736-4.335-11.389L140.214,209.606z"/>
					<path style="fill:#FFFFFF;" d="M149.795,227.665l1.891,2.092c0.135,0.15,0.181,0.359,0.119,0.547l-0.606,1.844
						c-0.069,0.211-0.26,0.356-0.484,0.367l-2.038,0.098c-0.195,0.009-0.382-0.085-0.493-0.248l-1.218-1.791
						c-0.142-0.209-0.128-0.485,0.035-0.67l1.97-2.243C149.187,227.415,149.572,227.418,149.795,227.665z"/>
					<path style="fill:#263238;" d="M149.376,227.201c-1.545,2.345-1.56,5.357-1.56,5.357s-11.036-3.86-10.663-9.515
						c0,0,1.53-0.922,2.498-1.671C139.651,221.372,140.11,224.936,149.376,227.201z"/>
					<path style="fill:#263238;" d="M149.376,227.201c1.66,2.345,2.256,5.017,2.256,5.017s4.875-3.354,3.25-8.945
						c0,0-1.414-0.586-2.823-0.891C152.059,222.383,152.798,225.991,149.376,227.201z"/>
					<path style="fill:#FFFFFF;" d="M150.271,232.218c0,0,3.125,23.007,3.197,27.01c0.099,5.504-1.767,11.16-1.767,11.16
						s-2.148-4.068-2.52-11.33c-0.367-7.158,0.08-22.762-0.08-26.84H150.271z"/>
					<path style="opacity:0.2;" d="M148.921,211.888c-0.492,2.14-0.731,5.254,0.224,7.719c-0.775-0.114-1.57-0.351-2.36-0.719
						c-2.99-1.395-4.5-3.588-6.098-6.842c-0.134-0.833-0.295-1.649-0.472-2.439L148.921,211.888z"/>
					<g>
						<path style="fill:#B55B52;" d="M157.214,208.593c-0.767,1.531-2.167,2.546-3.507,2.943c-2.015,0.598-3.089-1.234-2.585-3.185
							c0.454-1.756,2.05-4.184,4.1-3.926C157.241,204.679,158.091,206.842,157.214,208.593z"/>
						<path style="opacity:0.2;" d="M157.214,208.593c-0.767,1.531-2.167,2.546-3.507,2.943c-2.015,0.598-3.089-1.234-2.585-3.185
							c0.454-1.756,2.05-4.184,4.1-3.926C157.241,204.679,158.091,206.842,157.214,208.593z"/>
					</g>
					<path style="fill:#263238;" d="M151.409,204.525c2.034,1.829,5.647-8.217,1.565-10.953c-4.082-2.736-5.524,0.972-5.458,3.307
						C147.581,199.213,148.393,201.814,151.409,204.525z"/>
					<path style="fill:#B55B52;" d="M137.752,202.826c0.94,6.368,1.172,10.137,4.639,13.203c5.214,4.612,12.739,1.154,13.69-5.331
						c0.856-5.837-0.825-15.271-7.213-17.397C142.574,191.207,136.812,196.457,137.752,202.826z"/>
					<path style="fill:#263238;" d="M137.353,208.233c1.096,0.704,2.607,2.626,4.873-0.774c0.001-0.877-2.23-2.357-2.399-4.441
						c-0.197-2.418-0.724-4.95-2.684-5.848c-4.468-2.047-5.297,1.844-4.858,4.138C132.724,203.603,133.942,206.04,137.353,208.233z"
						/>
					<path style="fill:#263238;" d="M136.747,199.409c10.554-1.643,16.782-2.039,19.956-5.948c3.173-3.909-1.702-8.837-6.97-9.403
						c-0.386,2.06-5.755,7.484-13.983,9.827c-2.053,0.584-2.493,3.296-0.708,4.466C136.003,198.983,136.747,199.409,136.747,199.409
						z"/>
					<path style="fill:#B55B52;" d="M135.516,210.068c1.021,1.409,2.58,2.223,3.972,2.435c2.095,0.319,2.841-1.637,2.007-3.498
						c-0.751-1.674-2.746-3.858-4.727-3.326C134.816,206.204,134.348,208.456,135.516,210.068z"/>
					<path style="fill:#263238;" d="M147.464,203.963c0.045,0.521,0.354,0.924,0.689,0.902c0.335-0.023,0.571-0.463,0.526-0.984
						c-0.045-0.521-0.354-0.924-0.689-0.902C147.655,203.002,147.419,203.443,147.464,203.963z"/>
					<path style="fill:#263238;" d="M153.264,203.569c0.045,0.521,0.353,0.924,0.689,0.902c0.335-0.023,0.571-0.463,0.526-0.984
						c-0.045-0.521-0.354-0.924-0.689-0.902C153.454,202.608,153.219,203.048,153.264,203.569z"/>
					<path style="fill:#A02724;" d="M151.442,203.954c0,0,1.426,2.924,2.836,4.287c-0.833,0.921-2.411,0.633-2.411,0.633
						L151.442,203.954z"/>
					<path style="fill:#263238;" d="M150.497,210.413c0.083-0.006,0.145-0.079,0.137-0.163c-0.007-0.084-0.081-0.148-0.164-0.143
						c-2.252,0.153-3.441-1.372-3.453-1.387c-0.053-0.067-0.148-0.081-0.212-0.03c-0.066,0.051-0.077,0.146-0.025,0.214
						C146.832,208.972,148.083,210.577,150.497,210.413z"/>
					<path style="fill:#263238;" d="M145.553,202.184c0.091-0.006,0.178-0.054,0.23-0.138c0.717-1.143,1.831-1.153,1.842-1.152
						c0.157,0.007,0.3-0.136,0.297-0.306c-0.003-0.169-0.141-0.307-0.308-0.308c-0.059-0.001-1.454,0.01-2.344,1.429
						c-0.089,0.142-0.046,0.332,0.095,0.424C145.423,202.172,145.489,202.188,145.553,202.184z"/>
					<path style="fill:#263238;" d="M155.688,201.306c0.044-0.006,0.087-0.021,0.126-0.048c0.137-0.093,0.172-0.283,0.077-0.424
						c-0.949-1.415-2.345-1.425-2.404-1.425c-0.163-0.006-0.299,0.138-0.295,0.308c0.004,0.169,0.142,0.305,0.308,0.305l0,0
						c0.046,0,1.135,0.019,1.893,1.149C155.461,201.272,155.577,201.321,155.688,201.306z"/>
					<path style="fill:#B55B52;" d="M123.55,233.262l8.098,4.754c0,0-10.215,20.045-9.106,23.128
						c1.509,4.196,3.793,13.423,6.479,18.031c-0.263,1.033-1.763,3.438-2.646,3.885c-6.434-4.318-13.487-18.47-13.463-22.509
						C112.967,251.342,123.55,233.262,123.55,233.262z"/>
					<path style="fill:#00b4d8;" d="M127.167,224.726c-6.059,0.884-12.506,21.955-12.506,21.955l14.292,4.622
						c0,0,4.035-7.43,6.626-14.872C138.294,228.634,133.666,223.777,127.167,224.726z"/>
					<path style="fill:#B55B52;" d="M127.555,278.341l6.108-0.443l-3.087,6.745c0,0-5.358,0.21-6.334-3.888L127.555,278.341z"/>
					<polygon style="fill:#B55B52;" points="138.696,281.002 135.597,286.967 130.576,284.643 133.663,277.898 					"/>
				</g>
			</g>
		</g>
		<g>
			<circle style="fill:#00b4d8;" cx="350.823" cy="309.441" r="50"/>
			<g>
				<defs>
					<circle id="SVGID_00000066477197527717607670000016130542808079392430_" cx="350.823" cy="309.441" r="47.368"/>
				</defs>
				<use xlink:href="#SVGID_00000066477197527717607670000016130542808079392430_"  style="overflow:visible;fill:#FFFFFF;"/>
				<clipPath id="SVGID_00000124134232296103255810000006278375296051512477_">
					<use xlink:href="#SVGID_00000066477197527717607670000016130542808079392430_"  style="overflow:visible;"/>
				</clipPath>
				<g style="clip-path:url(#SVGID_00000124134232296103255810000006278375296051512477_);">
					<g>
						<path style="fill:#263238;" d="M348.641,273.439c-7.107-0.638-11.543,10.301-10.062,27.038
							c9.007,5.113,19.309,0.055,27.559,4.114C373.772,292.878,371.744,266.561,348.641,273.439z"/>
						<path style="fill:#FFB573;" d="M337.537,321.781c-1.046,3.846-2.408,7.352-4.285,10.938c-0.981,1.767-2.043,3.54-3.659,5.253
							c-0.411,0.427-0.846,0.851-1.373,1.261c-0.504,0.392-1.323,1.056-2.672,1.348c-0.69,0.136-1.531,0.141-2.29-0.102
							c-0.739-0.224-1.376-0.623-1.787-0.995c-0.874-0.781-1.236-1.477-1.559-2.097c-0.6-1.242-0.853-2.288-1.092-3.324
							c-0.226-1.027-0.369-2.018-0.48-2.997c-0.221-1.953-0.32-3.857-0.347-5.751c-0.061-3.79,0.122-7.499,0.505-11.251l3.685,0.063
							c0.314,3.598,0.685,7.244,1.16,10.786c0.249,1.771,0.523,3.526,0.883,5.203c0.183,0.835,0.388,1.65,0.616,2.405
							c0.226,0.738,0.51,1.465,0.764,1.854c0.108,0.187,0.251,0.282,0.085,0.094c-0.07-0.062-0.29-0.243-0.595-0.329
							c-0.318-0.095-0.685-0.118-0.927-0.06c-0.448,0.083-0.483,0.213-0.299,0.005c0.184-0.174,0.387-0.416,0.588-0.673
							c0.814-1.053,1.617-2.487,2.308-3.985c0.719-1.497,1.361-3.097,1.941-4.73c0.601-1.606,1.161-3.334,1.656-4.895
							L337.537,321.781z"/>
						<path style="fill:#263238;" d="M332.598,312.155c-2.999,0.764-5.098,13.107-5.098,13.107l11.472,7.801
							c0,0,4.719-14.633,2.412-17.931C338.981,311.699,336.975,311.04,332.598,312.155z"/>
						<polygon style="opacity:0.2;" points="332.869,314.912 330.565,327.353 335.211,330.504 						"/>
						<path style="fill:#FFB573;" d="M322.345,315.155l1.516-7.678l-6.105,1.772c0,0-0.599,5.307,1.863,7.066L322.345,315.155z"/>
						<g>
							<polygon style="fill:#FFB573;" points="323.249,304.114 318.214,306.197 317.756,309.249 323.861,307.477 							"/>
						</g>
						<path style="fill:#263238;" d="M332.598,312.155c0,0-3.467,1.221,3.478,43.925c11.729,0,23.85,0,29.558,0
							c-0.496-12.03-0.51-19.448,5.24-44.136c0,0-6.193-1.347-12.552-1.654c-4.974-0.24-9.049-0.398-13.422,0
							C339.136,310.817,332.598,312.155,332.598,312.155z"/>
						<path style="opacity:0.2;" d="M368.435,321.717c-2.677,0.667-5.151,3.589-4.855,8.967c0.177,3.225,1.655,5.666,2.466,6.772
							c0.473-4.137,1.266-8.942,2.525-15.089L368.435,321.717z"/>
						<path style="fill:#FAFAFA;" d="M346.456,319.757c0,0,4.847,3.987,4.847,8.23c4.025-2.95,9.45-10.982,10.02-16.112
							c0.096-0.865-0.595-1.627-1.464-1.678c-0.453-0.027-0.817-0.084-1.077-0.138c-0.308-0.064-0.624,0.016-0.866,0.216
							L346.456,319.757z"/>
						<path style="fill:#FAFAFA;" d="M346.456,319.757c0,0-4.038,2.603-4.847,8.23c-4.077-2.987-2.387-12.224-0.117-16.585
							c0.359-0.69,1.042-1.155,1.814-1.245c0.596-0.069,1.052-0.149,1.351-0.209c0.23-0.046,0.447,0.111,0.479,0.343
							L346.456,319.757z"/>
						<path style="fill:#FFB573;" d="M356.992,295.178c-0.847,4.318-1.692,12.231,1.33,15.113c0,0-3.992,5.315-11.866,9.467
							c-5.987-4.785-1.556-9.466-1.556-9.466c4.816-1.15,4.691-4.723,3.853-8.078L356.992,295.178z"/>
						<path style="opacity:0.2;" d="M353.633,298.048l-4.876,4.161c0.201,0.794,0.358,1.599,0.414,2.382
							c1.84-0.266,4.733-1.833,5.128-3.834C354.486,299.81,353.79,298.496,353.633,298.048z"/>
						<path style="fill:#FFB573;" d="M364.232,288.241c-1.997,6.941-2.693,9.922-7.051,12.744
							c-6.554,4.245-14.644,0.275-14.761-7.124c-0.106-6.659,3.177-16.892,10.688-18.161
							C360.509,274.45,366.229,281.3,364.232,288.241z"/>
						<path style="fill:#263238;" d="M358.904,281.772c1.216,6.924,1.689,9.607,4.138,11.402c2.449,1.795,4.733-6.439,2.916-9.593
							C364.141,280.427,358.904,281.772,358.904,281.772z"/>
						<path style="fill:#263238;" d="M347.375,275.268c-1.467,1.74,1.554,5.381,4.483,6.567c-0.339-0.783-0.393-1.197-0.393-1.197
							s3.148,2.288,7.025,3.033c-0.277-0.399-0.539-0.896-0.548-1.232s7.22,4.439,8.268,1.019c1.048-3.421-2.533-7.941-7.999-9.373
							C353.533,272.859,349.187,273.12,347.375,275.268z"/>
						<path style="fill:#263238;" d="M352.594,287.615c-0.127,0.573-0.534,0.97-0.909,0.887c-0.375-0.083-0.575-0.615-0.448-1.188
							c0.127-0.573,0.534-0.97,0.909-0.887C352.521,286.51,352.721,287.042,352.594,287.615z"/>
						<path style="fill:#263238;" d="M346.116,286.175c-0.127,0.573-0.534,0.97-0.909,0.887c-0.375-0.083-0.575-0.615-0.448-1.188
							c0.127-0.573,0.534-0.97,0.909-0.887C346.043,285.07,346.244,285.602,346.116,286.175z"/>
						<path style="fill:#263238;" d="M345.827,285.056l-1.288-0.703C344.539,284.353,345.006,285.585,345.827,285.056z"/>
						<path style="fill:#ED893E;" d="M347.884,287.651c0,0-1.521,2.251-2.856,3.203c0.599,0.874,1.957,0.837,1.957,0.837
							L347.884,287.651z"/>
						<path style="fill:#263238;" d="M349.612,294.631c-0.273-0.018-0.559-0.058-0.858-0.125c-0.093-0.021-0.152-0.113-0.131-0.205
							c0.021-0.093,0.114-0.156,0.206-0.131c2.517,0.555,4.08-0.937,4.096-0.952c0.068-0.067,0.177-0.066,0.244,0.003
							c0.066,0.068,0.065,0.177-0.003,0.244C353.104,293.524,351.796,294.775,349.612,294.631z"/>
						<path style="fill:#FFB573;" d="M364.693,295.166c-0.83,1.247-2.158,1.994-3.368,2.216c-1.82,0.335-2.564-1.333-1.919-2.964
							c0.581-1.468,2.228-3.411,3.988-3.008C365.128,291.808,365.642,293.741,364.693,295.166z"/>
						<path style="fill:#263238;" d="M355.768,286.358c-0.144-0.02-0.265-0.129-0.292-0.28c-0.284-1.569-2.14-2.45-2.158-2.458
							c-0.172-0.08-0.247-0.285-0.167-0.458c0.08-0.172,0.283-0.249,0.458-0.167c0.09,0.042,2.199,1.044,2.545,2.961
							c0.034,0.187-0.091,0.367-0.278,0.4C355.84,286.363,355.803,286.363,355.768,286.358z"/>
						<path style="fill:#263238;" d="M344.836,281.587c-0.117,0.005-0.235-0.049-0.304-0.155c-0.105-0.159-0.061-0.373,0.098-0.478
							c1.592-1.049,3.06-0.43,3.121-0.403c0.175,0.076,0.254,0.279,0.179,0.454c-0.076,0.174-0.278,0.253-0.453,0.179
							c-0.059-0.025-1.203-0.486-2.467,0.347C344.956,281.566,344.896,281.585,344.836,281.587z"/>
						<path style="fill:#263238;" d="M352.304,286.495l-1.288-0.703C351.016,285.793,351.483,287.025,352.304,286.495z"/>
						<g>
							<path style="fill:#00b4d8;" d="M366.077,354.345l0.756,2.646c0.103,0.205-0.14,0.414-0.481,0.414H335.93
								c-0.267,0-0.487-0.13-0.504-0.298l-0.267-2.646c-0.018-0.183,0.212-0.338,0.504-0.338h29.931
								C365.815,354.123,366.01,354.213,366.077,354.345z"/>
							<path style="opacity:0.2;" d="M366.077,354.345l0.756,2.646c0.103,0.205-0.14,0.414-0.481,0.414H335.93
								c-0.267,0-0.487-0.13-0.504-0.298l-0.267-2.646c-0.018-0.183,0.212-0.338,0.504-0.338h29.931
								C365.815,354.123,366.01,354.213,366.077,354.345z"/>
						</g>
						<g>
							<g>
								<path style="fill:#00b4d8;" d="M361.958,357.692h0.802c0.16,0,0.281-0.082,0.27-0.183l-0.376-3.438
									c-0.011-0.1-0.151-0.183-0.31-0.183h-0.802c-0.16,0-0.281,0.082-0.27,0.183l0.376,3.438
									C361.659,357.61,361.798,357.692,361.958,357.692z"/>
								<path style="opacity:0.4;" d="M361.958,357.692h0.802c0.16,0,0.281-0.082,0.27-0.183l-0.376-3.438
									c-0.011-0.1-0.151-0.183-0.31-0.183h-0.802c-0.16,0-0.281,0.082-0.27,0.183l0.376,3.438
									C361.659,357.61,361.798,357.692,361.958,357.692z"/>
							</g>
							<g>
								<path style="fill:#00b4d8;" d="M338.183,357.692h0.802c0.16,0,0.281-0.082,0.27-0.183l-0.376-3.438
									c-0.011-0.1-0.151-0.183-0.31-0.183h-0.802c-0.16,0-0.281,0.082-0.27,0.183l0.376,3.438
									C337.884,357.61,338.023,357.692,338.183,357.692z"/>
								<path style="opacity:0.4;" d="M338.183,357.692h0.802c0.16,0,0.281-0.082,0.27-0.183l-0.376-3.438
									c-0.011-0.1-0.151-0.183-0.31-0.183h-0.802c-0.16,0-0.281,0.082-0.27,0.183l0.376,3.438
									C337.884,357.61,338.023,357.692,338.183,357.692z"/>
							</g>
							<g>
								<path style="fill:#00b4d8;" d="M350.021,357.692h0.802c0.16,0,0.281-0.082,0.27-0.183l-0.376-3.438
									c-0.011-0.1-0.151-0.183-0.31-0.183h-0.802c-0.16,0-0.281,0.082-0.27,0.183l0.376,3.438
									C349.722,357.61,349.861,357.692,350.021,357.692z"/>
								<path style="opacity:0.4;" d="M350.021,357.692h0.802c0.16,0,0.281-0.082,0.27-0.183l-0.376-3.438
									c-0.011-0.1-0.151-0.183-0.31-0.183h-0.802c-0.16,0-0.281,0.082-0.27,0.183l0.376,3.438
									C349.722,357.61,349.861,357.692,350.021,357.692z"/>
							</g>
						</g>
						<path style="fill:#FFB573;" d="M347.873,361.979l-7.178-3.208l2.046,7.113c0,0,4.557,1.034,6.541-1.251L347.873,361.979z"/>
						<path style="fill:#FFB573;" d="M374.32,320.712c0.333,2.494,0.59,4.997,0.887,7.495l0.763,7.509
							c0.271,2.501,0.455,5.012,0.683,7.518l0.327,3.761l0.082,0.94c0.01,0.094,0.038,0.487,0.046,0.753
							c0.01,0.292-0.015,0.584-0.034,0.874c-0.122,1.159-0.518,2.2-0.995,3.049c-0.981,1.702-2.206,2.774-3.383,3.703
							c-1.193,0.91-2.4,1.64-3.614,2.285c-2.437,1.265-4.878,2.26-7.354,3.086c-4.95,1.664-9.895,2.875-15.003,3.704l-0.819-3.594
							c2.321-0.762,4.701-1.553,7.004-2.435c2.321-0.846,4.611-1.754,6.825-2.759c2.205-1.015,4.379-2.063,6.315-3.293
							c0.97-0.604,1.881-1.248,2.647-1.92c0.76-0.66,1.364-1.393,1.596-1.907c0.121-0.254,0.147-0.425,0.146-0.522l-0.172-1.19
							l-0.53-3.739c-0.344-2.494-0.731-4.983-1.031-7.483l-0.951-7.492c-0.274-2.503-0.588-5-0.827-7.506L374.32,320.712z"/>
						<path style="fill:#263238;" d="M370.874,311.944c2.961,0.901,6.518,11.097,6.518,11.097L367.03,333.71
							c0,0-5.317-10.967-4.072-14.795C364.253,314.93,367.494,310.917,370.874,311.944z"/>
						<polygon style="fill:#FFB573;" points="334.757,360.247 336.792,366.109 342.741,365.883 340.695,358.771 						"/>
					</g>
				</g>
			</g>
		</g>
		<g>
			<path style="fill:#FFFFFF;" d="M346.487,220.339h-131.3c-2.395,0-4.336-1.941-4.336-4.336l0,0c0-2.395,1.941-4.336,4.336-4.336
				h131.3c2.395,0,4.336,1.941,4.336,4.336l0,0C350.823,218.398,348.882,220.339,346.487,220.339z"/>
			<path style="fill:#FFFFFF;" d="M316.044,238.571H215.187c-2.395,0-4.336-1.941-4.336-4.336l0,0c0-2.395,1.941-4.336,4.336-4.336
				h100.857c2.395,0,4.336,1.941,4.336,4.336l0,0C320.38,236.63,318.439,238.571,316.044,238.571z"/>
		</g>
		<g>
			<path style="fill:#FFFFFF;" d="M234.724,304.66h50.091c2.395,0,4.336-1.941,4.336-4.336l0,0c0-2.395-1.941-4.336-4.336-4.336
				h-50.091c-2.395,0-4.336,1.941-4.336,4.336l0,0C230.388,302.719,232.329,304.66,234.724,304.66z"/>
			<path style="fill:#FFFFFF;" d="M179.064,304.66h34.552c2.395,0,4.336-1.941,4.336-4.336l0,0c0-2.395-1.941-4.336-4.336-4.336
				h-34.552c-2.395,0-4.336,1.941-4.336,4.336l0,0C174.728,302.719,176.669,304.66,179.064,304.66z"/>
			<path style="fill:#FFFFFF;" d="M153.514,322.892h131.3c2.395,0,4.336-1.941,4.336-4.336l0,0c0-2.395-1.941-4.336-4.336-4.336
				h-131.3c-2.395,0-4.336,1.941-4.336,4.336l0,0C149.179,320.951,151.12,322.892,153.514,322.892z"/>
		</g>
		<path style="fill:#FFFFFF;" d="M99.833,95c0,2.301-1.865,4.167-4.167,4.167S91.5,97.301,91.5,95s1.866-4.167,4.167-4.167
			S99.833,92.699,99.833,95z"/>
		<circle style="fill:#FFFFFF;" cx="109.84" cy="95" r="4.167"/>
		<circle style="fill:#FFFFFF;" cx="124.013" cy="95" r="4.167"/>
	</g>
</g>
</svg>
