<svg
        width="100%"
        id="svg"
        viewBox="0 0 1440 450"
        xmlns="http://www.w3.org/2000/svg"
        style="transition duration-300 ease-in-out delay-150"
      >
        <defs>
          <linearGradient id="gradient" x1="0%" y1="50%" x2="100%" y2="50%">
            <stop offset="5%" stop-color="#0096c7"></stop>
            <stop offset="95%" stop-color="#8ED1FC"></stop>
          </linearGradient>
        </defs>
        <path
          d="M 0,600 L 0,150 C 122.1531100478469,152.78468899521533 244.3062200956938,155.56937799043064 338,168 C 431.6937799043062,180.43062200956936 496.92822966507174,202.50717703349284 592,208 C 687.0717703349283,213.49282296650716 811.9808612440191,202.40191387559807 916,178 C 1020.0191387559809,153.59808612440193 1103.1483253588517,115.88516746411483 1187,109 C 1270.8516746411483,102.11483253588517 1355.4258373205741,126.05741626794259 1440,150 L 1440,600 L 0,600 Z"
          stroke="none"
          stroke-width="0"
          fill="url(#gradient)"
          fill-opacity="0.53"
          style="transition-all duration-300 ease-in-out delay-150 path-0"
        ></path>
        <defs>
          <linearGradient id="gradient" x1="0%" y1="50%" x2="100%" y2="50%">
            <stop offset="5%" stop-color="#0096c7"></stop>
            <stop offset="95%" stop-color="#8ED1FC"></stop>
          </linearGradient>
        </defs>
        <path
          d="M 0,600 L 0,350 C 91.42583732057417,313.18660287081343 182.85167464114835,276.3732057416268 297,285 C 411.14832535885165,293.6267942583732 548.0191387559809,347.6937799043062 629,347 C 709.9808612440191,346.3062200956938 735.0717703349283,290.8516746411483 830,300 C 924.9282296650717,309.1483253588517 1089.6937799043062,382.8995215311005 1203,402 C 1316.3062200956938,421.1004784688995 1378.153110047847,385.55023923444975 1440,350 L 1440,600 L 0,600 Z"
          stroke="none"
          stroke-width="0"
          fill="url(#gradient)"
          fill-opacity="1"
          style="transition-all duration-300 ease-in-out delay-150 path-1"
        ></path>
      </svg>