<svg width="100%" height="100%" id="svg" viewBox="0 0 1440 360" xmlns="http://www.w3.org/2000/svg" class="transition duration-300 ease-in-out delay-150"><defs><linearGradient id="gradient" x1="0%" y1="50%" x2="100%" y2="50%"><stop offset="5%" stop-color="#0096c7"></stop><stop offset="95%" stop-color="#8ED1FC"></stop></linearGradient></defs><path d="M 0,400 L 0,100 C 95.72248803827753,83.05263157894737 191.44497607655506,66.10526315789474 283,68 C 374.55502392344494,69.89473684210526 461.9425837320574,90.63157894736841 556,101 C 650.0574162679426,111.36842105263159 750.7846889952153,111.36842105263159 858,109 C 965.2153110047847,106.63157894736841 1078.9186602870814,101.89473684210526 1177,100 C 1275.0813397129186,98.10526315789474 1357.5406698564593,99.05263157894737 1440,100 L 1440,400 L 0,400 Z" stroke="none" stroke-width="0" fill="url(#gradient)" fill-opacity="0.53" class="transition-all duration-300 ease-in-out delay-150 path-0"></path><defs><linearGradient id="gradient" x1="0%" y1="50%" x2="100%" y2="50%"><stop offset="5%" stop-color="#0096c7"></stop><stop offset="95%" stop-color="#8ED1FC"></stop></linearGradient></defs><path d="M 0,400 L 0,233 C 78.90909090909093,242.07177033492823 157.81818181818187,251.14354066985646 243,261 C 328.18181818181813,270.85645933014354 419.6363636363635,281.4976076555024 523,278 C 626.3636363636365,274.5023923444976 741.6363636363637,256.86602870813397 859,248 C 976.3636363636363,239.13397129186606 1095.8181818181818,239.03827751196175 1193,238 C 1290.1818181818182,236.96172248803825 1365.090909090909,234.98086124401914 1440,233 L 1440,400 L 0,400 Z" stroke="none" stroke-width="0" fill="url(#gradient)" fill-opacity="1" class="transition-all duration-300 ease-in-out delay-150 path-1"></path></svg>